<svg width="512" height="512" viewBox="0 0 512 512" fill="none" xmlns="http://www.w3.org/2000/svg">
<rect width="512" height="512" fill="#8B5E9F"/>
<path d="M145.617 425.341L127.142 414.675L220.284 296.015L155.621 258.682C153.738 257.595 152.317 256.526 151.277 255.486C143.335 247.547 157.604 241.266 158.213 240.964C206.366 212.601 278.475 170.478 374.752 114.228L393.228 124.894L300.086 243.554L364.934 280.994C366.486 281.89 367.802 282.857 368.829 283.883C372.69 287.742 372.455 292.449 365.284 297.454C218.813 382.615 145.617 425.341 145.617 425.341Z" fill="url(#paint0_radial_57_4)"/>
<path d="M144.071 226.822C143.462 227.124 129.192 233.405 137.134 241.344L151.274 255.483C143.338 247.545 157.604 241.266 158.213 240.964L144.071 226.822Z" fill="url(#paint1_radial_57_4)"/>
<path d="M137.134 241.344C138.175 242.384 139.596 243.452 141.479 244.54L155.621 258.682C153.738 257.595 152.317 256.526 151.277 255.486L137.134 241.344Z" fill="url(#paint2_radial_57_4)"/>
<path d="M351.682 105.302C259.863 158.948 190.724 199.342 144.071 226.822L158.213 240.964C204.866 213.485 274.005 173.09 365.824 119.444L374.752 114.228L360.61 100.086L351.682 105.302Z" fill="url(#paint3_radial_57_4)"/>
<path d="M141.479 244.54L206.142 281.873L220.284 296.015L155.621 258.682L141.479 244.54Z" fill="url(#paint4_radial_57_4)"/>
<path d="M379.086 110.752L360.61 100.086L374.752 114.228L393.228 124.894L379.086 110.752Z" fill="url(#paint5_radial_57_4)"/>
<path d="M206.142 281.873L113 400.533L127.142 414.675L220.284 296.015L206.142 281.873Z" fill="url(#paint6_radial_57_4)"/>
<path d="M285.944 229.412L379.086 110.752L393.228 124.894L300.086 243.554L285.944 229.412Z" fill="url(#paint7_radial_57_4)"/>
<path d="M113 400.533L131.475 411.199L145.617 425.341L127.142 414.675L113 400.533Z" fill="url(#paint8_radial_57_4)"/>
<path d="M350.792 266.852L285.944 229.412L300.086 243.554L364.934 280.994L350.792 266.852Z" fill="url(#paint9_radial_57_4)"/>
<path d="M131.475 411.199C131.475 411.199 204.671 368.473 351.142 283.312L365.284 297.454C218.813 382.615 145.617 425.341 145.617 425.341L131.475 411.199Z" fill="url(#paint10_radial_57_4)"/>
<path d="M354.686 269.741C353.66 268.714 352.344 267.748 350.792 266.852L364.934 280.994C366.486 281.89 367.802 282.857 368.829 283.883L354.686 269.741Z" fill="url(#paint11_radial_57_4)"/>
<path d="M351.142 283.312C358.311 278.308 358.547 273.603 354.69 269.744L368.829 283.883C372.69 287.742 372.455 292.449 365.284 297.454L351.142 283.312Z" fill="url(#paint12_radial_57_4)"/>
<path d="M131.475 411.199L113 400.533L206.142 281.873L141.479 244.54C125.22 235.153 143.382 227.163 144.071 226.822C192.224 198.459 264.333 156.336 360.61 100.086L379.086 110.752L285.944 229.412L350.792 266.852C358.182 271.119 360.22 276.976 351.142 283.312C204.671 368.473 131.475 411.199 131.475 411.199Z" fill="url(#paint13_radial_57_4)"/>
<path d="M145.617 425.341L143.117 429.672L145.631 431.123L148.138 429.66L145.617 425.341ZM127.142 414.675L123.607 418.21L124.072 418.676L124.642 419.005L127.142 414.675ZM220.284 296.015L224.217 299.102L226.955 295.615L223.82 292.479L220.284 296.015ZM158.213 240.964L160.43 245.446L160.593 245.365L160.751 245.273L158.213 240.964ZM393.228 124.894L397.161 127.982L399.898 124.494L396.763 121.359L393.228 124.894ZM300.086 243.554L296.55 247.09L297.016 247.555L297.586 247.884L300.086 243.554ZM365.284 297.454L367.797 301.777L367.976 301.673L368.146 301.554L365.284 297.454ZM137.134 241.344L140.669 237.808L137.134 241.344ZM151.274 255.483L147.738 259.019L151.274 255.483ZM351.682 105.302L354.204 109.619V109.619L351.682 105.302ZM360.61 100.086L363.11 95.7554L360.595 94.3034L358.088 95.7684L360.61 100.086ZM365.824 119.444L368.346 123.762V123.762L365.824 119.444ZM206.142 281.873L209.678 278.337L209.212 277.872L208.642 277.543L206.142 281.873ZM379.086 110.752L382.621 107.217L382.156 106.751L381.586 106.422L379.086 110.752ZM113 400.533L109.067 397.445L106.329 400.933L109.464 404.068L113 400.533ZM285.944 229.412L282.011 226.325L279.273 229.812L282.408 232.948L285.944 229.412ZM350.792 266.852L353.292 262.522L350.792 266.852ZM354.69 269.744L351.154 273.279L351.154 273.279L354.69 269.744ZM148.117 421.011L129.642 410.345L124.642 419.005L143.117 429.672L148.117 421.011ZM131.075 417.762L224.217 299.102L216.351 292.928L123.209 411.588L131.075 417.762ZM222.784 291.685L158.121 254.352L153.121 263.012L217.784 300.345L222.784 291.685ZM158.121 254.352C156.506 253.419 155.465 252.603 154.812 251.95L147.742 259.023C149.169 260.45 150.97 261.77 153.121 263.012L158.121 254.352ZM160.751 245.273C208.894 216.915 280.993 174.798 377.275 118.545L372.23 109.911C275.957 166.159 203.838 208.287 155.676 236.656L160.751 245.273ZM372.252 118.558L390.728 129.224L395.728 120.564L377.252 109.898L372.252 118.558ZM389.295 121.807L296.153 240.467L304.019 246.641L397.161 127.982L389.295 121.807ZM297.586 247.884L362.434 285.324L367.434 276.664L302.586 239.224L297.586 247.884ZM362.434 285.324C363.716 286.065 364.653 286.779 365.294 287.419L372.363 280.346C370.95 278.934 369.256 277.716 367.434 276.664L362.434 285.324ZM362.771 293.132C289.534 335.713 234.616 367.686 198.007 389.013C179.703 399.677 165.975 407.679 156.824 413.016C152.248 415.684 148.817 417.686 146.529 419.021C145.385 419.688 144.527 420.189 143.955 420.522C143.669 420.689 143.454 420.814 143.311 420.898C143.24 420.94 143.186 420.971 143.15 420.992C143.133 421.002 143.119 421.01 143.11 421.015C143.106 421.018 143.102 421.02 143.1 421.021C143.099 421.022 143.098 421.022 143.098 421.023C143.097 421.023 143.097 421.023 145.617 425.341C148.138 429.66 148.138 429.659 148.139 429.659C148.139 429.659 148.14 429.658 148.141 429.658C148.143 429.656 148.147 429.654 148.151 429.652C148.16 429.647 148.174 429.639 148.191 429.628C148.227 429.608 148.281 429.576 148.352 429.535C148.495 429.451 148.709 429.326 148.995 429.159C149.567 428.826 150.425 428.325 151.568 427.658C153.855 426.323 157.286 424.322 161.862 421.654C171.012 416.318 184.738 408.317 203.041 397.654C239.648 376.328 294.563 344.357 367.797 301.777L362.771 293.132ZM154.812 251.95C154.195 251.334 153.985 250.925 153.919 250.756C153.865 250.62 153.878 250.585 153.879 250.578C153.896 250.454 154.07 249.882 155.04 248.93C157 247.007 159.892 245.712 160.43 245.446L155.997 236.482C156.003 236.479 154.735 237.054 153.243 237.921C151.762 238.782 149.777 240.085 148.037 241.792C146.356 243.441 144.413 245.947 143.969 249.243C143.482 252.854 144.934 256.216 147.742 259.023L154.812 251.95ZM365.294 287.419C366.473 288.598 366.319 289.118 366.297 289.226C366.205 289.673 365.585 291.147 362.422 293.355L368.146 301.554C372.154 298.756 375.237 295.374 376.09 291.251C377.012 286.79 375.045 283.027 372.363 280.346L365.294 287.419ZM140.669 237.808C140.052 237.191 139.843 236.782 139.777 236.614C139.723 236.478 139.736 236.443 139.737 236.436C139.754 236.312 139.927 235.74 140.897 234.788C142.858 232.865 145.75 231.57 146.287 231.304L141.855 222.34C141.861 222.337 140.593 222.912 139.101 223.779C137.62 224.64 135.635 225.942 133.894 227.65C132.214 229.299 130.271 231.805 129.827 235.1C129.34 238.712 130.792 242.074 133.599 244.88L140.669 237.808ZM140.536 230.358L154.678 244.5L161.749 237.429L147.607 223.287L140.536 230.358ZM155.997 236.482C156.003 236.479 154.735 237.054 153.243 237.921C151.763 238.781 149.778 240.084 148.038 241.791C146.357 243.439 144.415 245.944 143.969 249.239C143.482 252.85 144.931 256.211 147.737 259.018L154.81 251.949C154.194 251.332 153.985 250.924 153.919 250.756C153.865 250.62 153.878 250.585 153.879 250.578C153.896 250.453 154.07 249.881 155.04 248.93C157.001 247.007 159.892 245.712 160.43 245.446L155.997 236.482ZM147.738 259.019C147.732 259.013 147.727 259.007 147.724 259.005C147.721 259.002 147.719 259 147.719 259C147.719 259 147.72 259.001 147.721 259.002C147.722 259.003 147.723 259.004 147.725 259.006C147.729 259.009 147.734 259.015 147.741 259.022L154.812 251.951C154.819 251.957 154.824 251.962 154.827 251.965C154.829 251.968 154.831 251.97 154.831 251.97C154.831 251.97 154.83 251.969 154.829 251.968C154.828 251.967 154.827 251.966 154.825 251.964C154.822 251.96 154.816 251.955 154.809 251.948L147.738 259.019ZM154.809 251.948L140.67 237.809L133.599 244.88L147.738 259.019L154.809 251.948ZM143.979 240.209C142.364 239.277 141.322 238.461 140.669 237.808L133.599 244.88C135.027 246.307 136.828 247.628 138.979 248.87L143.979 240.209ZM133.599 244.88L147.741 259.022L154.812 251.951L140.67 237.809L133.599 244.88ZM159.156 255.146L145.014 241.004L137.943 248.075L152.085 262.217L159.156 255.146ZM146.609 231.13C193.252 203.656 262.381 163.267 354.204 109.619L349.159 100.985C257.344 154.628 188.196 195.029 141.534 222.514L146.609 231.13ZM354.204 109.619L363.133 104.403L358.088 95.7684L349.159 100.985L354.204 109.619ZM357.075 103.621L371.217 117.763L378.288 110.692L364.146 96.55L357.075 103.621ZM372.23 109.911L363.301 115.127L368.346 123.762L377.275 118.545L372.23 109.911ZM363.301 115.127C271.486 168.771 202.338 209.171 155.676 236.656L160.751 245.273C207.394 217.798 276.523 177.409 368.346 123.762L363.301 115.127ZM208.642 277.543L143.979 240.209L138.979 248.87L203.642 286.203L208.642 277.543ZM223.82 292.479L209.678 278.337L202.606 285.408L216.748 299.55L223.82 292.479ZM358.11 104.416L376.586 115.082L381.586 106.422L363.11 95.7554L358.11 104.416ZM375.55 114.288L389.692 128.43L396.763 121.359L382.621 107.217L375.55 114.288ZM116.933 403.62L210.075 284.96L202.209 278.786L109.067 397.445L116.933 403.62ZM130.678 411.139L116.536 396.997L109.464 404.068L123.607 418.21L130.678 411.139ZM375.153 107.665L282.011 226.325L289.877 232.499L383.019 113.839L375.153 107.665ZM282.408 232.948L296.55 247.09L303.621 240.019L289.479 225.876L282.408 232.948ZM133.975 406.869L115.5 396.202L110.5 404.863L128.975 415.529L133.975 406.869ZM149.153 421.806L135.011 407.664L127.94 414.735L142.082 428.877L149.153 421.806ZM283.444 233.742L348.292 271.182L353.292 262.522L288.444 225.082L283.444 233.742ZM347.256 270.388L361.398 284.53L368.469 277.459L354.327 263.316L347.256 270.388ZM348.628 278.99C275.392 321.571 220.474 353.543 183.865 374.871C165.561 385.534 151.833 393.537 142.682 398.873C138.106 401.542 134.675 403.544 132.387 404.878C131.243 405.546 130.385 406.046 129.813 406.38C129.527 406.547 129.312 406.672 129.169 406.756C129.098 406.798 129.044 406.829 129.008 406.85C128.99 406.86 128.977 406.868 128.968 406.873C128.964 406.876 128.96 406.878 128.958 406.879C128.957 406.88 128.956 406.88 128.955 406.881C128.955 406.881 128.955 406.881 131.475 411.199C133.996 415.517 133.996 415.517 133.997 415.517C133.997 415.517 133.998 415.516 133.999 415.515C134.001 415.514 134.005 415.512 134.009 415.51C134.018 415.504 134.031 415.497 134.049 415.486C134.085 415.465 134.139 415.434 134.21 415.392C134.353 415.309 134.567 415.184 134.853 415.017C135.425 414.683 136.282 414.183 137.426 413.516C139.713 412.181 143.144 410.18 147.719 407.512C156.87 402.176 170.596 394.174 188.899 383.511C225.506 362.186 280.421 330.215 353.655 287.635L348.628 278.99ZM368.819 293.919L354.677 279.777L347.606 286.848L361.748 300.99L368.819 293.919ZM348.292 271.182C349.574 271.923 350.512 272.637 351.152 273.277L358.221 266.204C356.808 264.792 355.113 263.574 353.292 262.522L348.292 271.182ZM351.151 273.276L365.293 287.418L372.364 280.347L358.222 266.205L351.151 273.276ZM351.152 273.277C351.156 273.281 351.159 273.284 351.161 273.286C351.162 273.287 351.163 273.288 351.163 273.288C351.164 273.289 351.164 273.289 351.164 273.289C351.164 273.289 351.164 273.289 351.164 273.289C351.165 273.29 351.163 273.288 351.162 273.287C351.16 273.285 351.157 273.282 351.154 273.279L358.226 266.209C358.222 266.205 358.219 266.202 358.216 266.199C358.214 266.197 358.212 266.196 358.212 266.195C358.212 266.195 358.213 266.196 358.214 266.197C358.215 266.198 358.218 266.201 358.221 266.204L351.152 273.277ZM351.154 273.279C352.331 274.456 352.177 274.976 352.155 275.085C352.062 275.532 351.441 277.006 348.28 279.212L354.004 287.412C358.011 284.615 361.093 281.234 361.947 277.113C362.871 272.653 360.907 268.891 358.226 266.209L351.154 273.279ZM372.364 280.347L358.226 266.209L351.154 273.28L365.293 287.418L372.364 280.347ZM143.979 240.209C140.354 238.117 139.803 236.73 139.747 236.528C139.733 236.476 139.726 236.452 139.758 236.348C139.805 236.192 139.945 235.882 140.31 235.429C141.08 234.475 142.345 233.506 143.695 232.682C144.994 231.888 145.967 231.463 146.287 231.304L141.855 222.34C141.864 222.336 135.964 224.893 132.529 229.148C130.676 231.444 128.944 234.975 130.108 239.19C131.198 243.137 134.474 246.269 138.979 248.87L143.979 240.209ZM146.609 231.13C194.752 202.773 266.851 160.656 363.133 104.403L358.088 95.7684C261.815 152.017 189.696 194.145 141.534 222.514L146.609 231.13ZM348.292 271.182C351.634 273.112 352.138 274.532 352.171 274.838C352.171 274.841 352.351 276.371 348.28 279.212L354.004 287.412C359.011 283.917 362.71 279.35 362.114 273.774C361.549 268.5 357.339 264.859 353.292 262.522L348.292 271.182Z" fill="black"/>
<path d="M146.006 425.341L127.531 414.675L220.673 296.015L156.01 258.682C154.127 257.595 152.706 256.526 151.665 255.486C143.724 247.547 157.993 241.266 158.602 240.964C206.755 212.601 278.864 170.478 375.141 114.228L393.617 124.894L300.475 243.554L365.323 280.994C366.875 281.89 368.191 282.857 369.217 283.883C373.078 287.742 372.844 292.449 365.673 297.454C219.202 382.615 146.006 425.341 146.006 425.341Z" fill="#C09B35"/>
<path d="M144.46 226.822C143.851 227.124 129.581 233.405 137.523 241.344L151.663 255.483C143.727 247.545 157.993 241.266 158.602 240.964L144.46 226.822Z" fill="#E68222"/>
<path d="M137.523 241.344C138.564 242.384 139.985 243.452 141.868 244.54L156.01 258.682C154.127 257.595 152.706 256.526 151.666 255.486L137.523 241.344Z" fill="#E68222"/>
<path d="M352.071 105.302C260.252 158.948 191.113 199.342 144.46 226.822L158.602 240.964C205.255 213.485 274.394 173.09 366.213 119.444L375.141 114.228L360.999 100.086L352.071 105.302Z" fill="#E68222"/>
<path d="M141.868 244.539L206.531 281.873L220.673 296.015L156.01 258.682L141.868 244.539Z" fill="#E68222"/>
<path d="M379.474 110.752L360.999 100.086L375.141 114.228L393.617 124.894L379.474 110.752Z" fill="#E68222"/>
<path d="M206.531 281.873L113.389 400.533L127.531 414.675L220.673 296.015L206.531 281.873Z" fill="#E68222"/>
<path d="M286.333 229.412L379.474 110.752L393.617 124.894L300.475 243.554L286.333 229.412Z" fill="#E68222"/>
<path d="M113.389 400.533L131.864 411.199L146.006 425.341L127.531 414.675L113.389 400.533Z" fill="#E68222"/>
<path d="M351.181 266.852L286.333 229.412L300.475 243.554L365.323 280.994L351.181 266.852Z" fill="#E68222"/>
<path d="M131.864 411.199C131.864 411.199 205.06 368.473 351.531 283.312L365.673 297.454C219.202 382.615 146.006 425.341 146.006 425.341L131.864 411.199Z" fill="#E68222"/>
<path d="M355.075 269.741C354.049 268.714 352.733 267.748 351.181 266.852L365.323 280.994C366.875 281.89 368.191 282.857 369.218 283.883L355.075 269.741Z" fill="#E68222"/>
<path d="M351.531 283.312C358.7 278.308 358.936 273.603 355.079 269.744L369.218 283.883C373.079 287.742 372.844 292.449 365.673 297.454L351.531 283.312Z" fill="#E68222"/>
<path d="M131.864 411.199L113.389 400.533L206.531 281.873L141.868 244.539C125.609 235.153 143.771 227.163 144.46 226.822C192.613 198.459 264.722 156.336 360.999 100.086L379.475 110.752L286.333 229.412L351.181 266.852C358.571 271.119 360.609 276.976 351.531 283.312C205.06 368.473 131.864 411.199 131.864 411.199Z" fill="url(#paint14_radial_57_4)"/>
<defs>
<radialGradient id="paint0_radial_57_4" cx="0" cy="0" r="1" gradientUnits="userSpaceOnUse" gradientTransform="translate(246.034 255.637) rotate(120) scale(192 106.721)">
<stop stop-color="#DFD788"/>
<stop offset="1" stop-color="#EEE8B0"/>
</radialGradient>
<radialGradient id="paint1_radial_57_4" cx="0" cy="0" r="1" gradientUnits="userSpaceOnUse" gradientTransform="translate(246.034 255.637) rotate(120) scale(192 106.721)">
<stop stop-color="#DFD788"/>
<stop offset="1" stop-color="#EEE8B0"/>
</radialGradient>
<radialGradient id="paint2_radial_57_4" cx="0" cy="0" r="1" gradientUnits="userSpaceOnUse" gradientTransform="translate(246.034 255.637) rotate(120) scale(192 106.721)">
<stop stop-color="#DFD788"/>
<stop offset="1" stop-color="#EEE8B0"/>
</radialGradient>
<radialGradient id="paint3_radial_57_4" cx="0" cy="0" r="1" gradientUnits="userSpaceOnUse" gradientTransform="translate(246.034 255.637) rotate(120) scale(192 106.721)">
<stop stop-color="#DFD788"/>
<stop offset="1" stop-color="#EEE8B0"/>
</radialGradient>
<radialGradient id="paint4_radial_57_4" cx="0" cy="0" r="1" gradientUnits="userSpaceOnUse" gradientTransform="translate(246.034 255.637) rotate(120) scale(192 106.721)">
<stop stop-color="#DFD788"/>
<stop offset="1" stop-color="#EEE8B0"/>
</radialGradient>
<radialGradient id="paint5_radial_57_4" cx="0" cy="0" r="1" gradientUnits="userSpaceOnUse" gradientTransform="translate(246.034 255.637) rotate(120) scale(192 106.721)">
<stop stop-color="#DFD788"/>
<stop offset="1" stop-color="#EEE8B0"/>
</radialGradient>
<radialGradient id="paint6_radial_57_4" cx="0" cy="0" r="1" gradientUnits="userSpaceOnUse" gradientTransform="translate(246.034 255.637) rotate(120) scale(192 106.721)">
<stop stop-color="#DFD788"/>
<stop offset="1" stop-color="#EEE8B0"/>
</radialGradient>
<radialGradient id="paint7_radial_57_4" cx="0" cy="0" r="1" gradientUnits="userSpaceOnUse" gradientTransform="translate(246.034 255.637) rotate(120) scale(192 106.721)">
<stop stop-color="#DFD788"/>
<stop offset="1" stop-color="#EEE8B0"/>
</radialGradient>
<radialGradient id="paint8_radial_57_4" cx="0" cy="0" r="1" gradientUnits="userSpaceOnUse" gradientTransform="translate(246.034 255.637) rotate(120) scale(192 106.721)">
<stop stop-color="#DFD788"/>
<stop offset="1" stop-color="#EEE8B0"/>
</radialGradient>
<radialGradient id="paint9_radial_57_4" cx="0" cy="0" r="1" gradientUnits="userSpaceOnUse" gradientTransform="translate(246.034 255.637) rotate(120) scale(192 106.721)">
<stop stop-color="#DFD788"/>
<stop offset="1" stop-color="#EEE8B0"/>
</radialGradient>
<radialGradient id="paint10_radial_57_4" cx="0" cy="0" r="1" gradientUnits="userSpaceOnUse" gradientTransform="translate(246.034 255.637) rotate(120) scale(192 106.721)">
<stop stop-color="#DFD788"/>
<stop offset="1" stop-color="#EEE8B0"/>
</radialGradient>
<radialGradient id="paint11_radial_57_4" cx="0" cy="0" r="1" gradientUnits="userSpaceOnUse" gradientTransform="translate(246.034 255.637) rotate(120) scale(192 106.721)">
<stop stop-color="#DFD788"/>
<stop offset="1" stop-color="#EEE8B0"/>
</radialGradient>
<radialGradient id="paint12_radial_57_4" cx="0" cy="0" r="1" gradientUnits="userSpaceOnUse" gradientTransform="translate(246.034 255.637) rotate(120) scale(192 106.721)">
<stop stop-color="#DFD788"/>
<stop offset="1" stop-color="#EEE8B0"/>
</radialGradient>
<radialGradient id="paint13_radial_57_4" cx="0" cy="0" r="1" gradientUnits="userSpaceOnUse" gradientTransform="translate(246.034 255.637) rotate(120) scale(192 106.721)">
<stop stop-color="#DFD788"/>
<stop offset="1" stop-color="#EEE8B0"/>
</radialGradient>
<radialGradient id="paint14_radial_57_4" cx="0" cy="0" r="1" gradientUnits="userSpaceOnUse" gradientTransform="translate(246.423 255.637) rotate(120) scale(192 106.721)">
<stop stop-color="#F9BA17"/>
<stop offset="1" stop-color="#EEE8B0"/>
<stop offset="1" stop-color="#EEE3CD"/>
</radialGradient>
</defs>
</svg>
